Coordinates
version=1
nRows=10
nColumns=46
inDegrees=yes

Units are S.I. units (second, meters, Newtons, ...)
Angles are in degrees.

endheader
time	pelvis_tilt	pelvis_list	pelvis_rotation	pelvis_tx	pelvis_ty	pelvis_tz	bb_angle	bb_tx	bb_ty	bb_tz	hip_flexion_r	hip_adduction_r	hip_rotation_r	knee_angle_r	knee_angle_r_beta	ankle_angle_r	subtalar_angle_r	mtp_angle_r	crank_angle_r	hip_flexion_l	hip_adduction_l	hip_rotation_l	knee_angle_l	knee_angle_l_beta	ankle_angle_l	subtalar_angle_l	mtp_angle_l	crank_angle_l	lumbar_extension	lumbar_bending	lumbar_rotation	arm_flex_r	arm_add_r	arm_rot_r	elbow_flex_r	pro_sup_r	wrist_flex_r	wrist_dev_r	arm_flex_l	arm_add_l	arm_rot_l	elbow_flex_l	pro_sup_l	wrist_flex_l	wrist_dev_l
      7.50000000	    -10.45126415	      8.56196070	      5.70319453	      0.17146383	      1.06573419	     -0.31014821	      0.00000000	      0.50000000	      0.00000000	      0.25000000	     39.73928243	    -16.63030380	     -2.51526049	     41.22282898	      0.71947409	    -23.39100154	     -5.76700589	      0.00000000	      0.00000000	     90.56796398	      0.82451183	     -1.12460704	    112.38325050	      1.96145775	     -4.86836725	     -6.52240582	      0.00000000	      0.00000000	    -65.78786294	     -7.41935102	     -6.04279450	     89.32240628	    -17.09218414	     38.30477215	     31.83350957	     26.63152712	      0.00000000	      0.00000000	     89.70111614	      1.61927175	     28.66056730	     41.71285724	     28.63999949	      0.00000000	      0.00000000
      7.50500000	    -10.52525358	      8.45586248	      5.69825616	      0.17065356	      1.06663722	     -0.30972615	      0.00000000	      0.50000000	      0.00000000	      0.25000000	     40.17068931	    -16.46664293	     -2.16807743	     42.71981033	      0.74560135	    -23.89519579	     -6.54583688	      0.00000000	      0.00000000	     90.48433396	      0.72910437	     -1.23482591	    111.09386799	      1.93895378	     -4.23429003	     -6.66371468	      0.00000000	      0.00000000	    -65.81530833	     -7.64884512	     -5.98484961	     89.36087057	    -17.43979664	     39.31800235	     31.35586862	     27.85053782	      0.00000000	      0.00000000	     89.70323429	      2.05934083	     27.77042928	     42.00284110	     27.58031052	      0.00000000	      0.00000000
      7.51000000	    -10.48175519	      8.38484936	      5.71396020	      0.16993348	      1.06767943	     -0.30949885	      0.00000000	      0.50000000	      0.00000000	      0.25000000	     40.54695690	    -16.37819884	     -1.91798462	     44.34913932	      0.77403850	    -24.36906819	     -7.40410923	      0.00000000	      0.00000000	     90.05119691	      0.71770323	     -1.35748779	    109.64026452	      1.91358361	     -3.31100434	     -6.65519812	      0.00000000	      0.00000000	    -66.01085995	     -7.76525554	     -5.93707127	     89.34872378	    -17.21491237	     37.11554983	     31.24624098	     28.62765463	      0.00000000	      0.00000000	     89.70823982	      2.38017042	     26.99356397	     42.01974044	     28.28201328	      0.00000000	      0.00000000
      7.51500000	    -10.58679134	      8.20461448	      5.56380532	      0.16919316	      1.06820696	     -0.30919480	      0.00000000	      0.50000000	      0.00000000	      0.25000000	     41.26855385	    -16.05740063	     -1.39998705	     46.21356605	      0.80657889	    -24.64408714	     -7.97183204	      0.00000000	      0.00000000	     89.63879586	      0.52570764	     -1.34551661	    108.12394470	      1.88711884	     -2.04582207	     -6.48434496	      0.00000000	      0.00000000	    -65.99544847	     -8.00795561	     -5.80912284	     89.38499719	    -17.65672745	     38.67426171	     31.22107829	     28.76057688	      0.00000000	      0.00000000	     89.71044986	      2.29191171	     27.36970299	     42.65385766	     27.30148020	      0.00000000	      0.00000000
      7.52000000	    -10.46580666	      7.92830226	      5.57915875	      0.16839360	      1.06920032	     -0.30918244	      0.00000000	      0.50000000	      0.00000000	      0.25000000	     41.69311550	    -15.78321064	     -1.29568251	     48.02948771	      0.83827270	    -25.32585788	     -9.23896761	      0.00000000	      0.00000000	     88.82215607	      0.55908943	     -1.27306148	    106.37497953	      1.85659363	     -0.97863202	     -6.63821357	      0.00000000	      0.00000000	    -66.38232679	     -7.97825231	     -5.33172500	     89.30762192	    -18.03815964	     35.24570342	     32.43267191	     30.93083143	      0.00000000	      0.00000000	     89.71577566	      2.89380797	     26.35007411	     42.96797012	     29.81485226	      0.00000000	      0.00000000
      7.52500000	    -10.56489673	      7.46602614	      5.55492040	      0.16744980	      1.06943862	     -0.30898278	      0.00000000	      0.50000000	      0.00000000	      0.25000000	     42.45195870	    -15.24750919	     -0.86439201	     50.05716970	      0.87366243	    -25.35169012	     -9.37895392	      0.00000000	      0.00000000	     88.12580331	      0.45259170	     -1.01594432	    104.50383746	      1.82393604	      0.25629200	     -6.69846471	      0.00000000	      0.00000000	    -66.27034937	     -7.82023826	     -4.98179227	     89.36450303	    -17.90310469	     35.44483620	     32.22607845	     30.87923744	      0.00000000	      0.00000000	     89.71801603	      2.73837171	     26.33259928	     42.99835315	     29.74389887	      0.00000000	      0.00000000
      7.53000000	    -10.72663441	      7.30400862	      5.33192185	      0.16693244	      1.06949444	     -0.30857602	      0.00000000	      0.50000000	      0.00000000	      0.25000000	     43.48446256	    -14.86151404	     -0.22772035	     52.34198600	      0.91353999	    -25.25553006	    -10.06745873	      0.00000000	      0.00000000	     87.29670642	      0.21184048	     -1.06045268	    102.58137366	      1.79038272	      1.76682620	     -6.34175538	      0.00000000	      0.00000000	    -66.15677467	     -8.13081422	     -4.92473225	     89.40480661	    -18.25170759	     38.02510888	     32.26731630	     27.53515946	      0.00000000	      0.00000000	     89.71648644	      2.59924719	     26.97459101	     44.29742567	     23.44417000	      0.00000000	      0.00000000
      7.53500000	    -10.63951290	      6.97688843	      5.18551056	      0.16645327	      1.06984955	     -0.30851163	      0.00000000	      0.50000000	      0.00000000	      0.25000000	     44.15866502	    -14.40156271	      0.18412325	     54.56030272	      0.95225692	    -25.00828053	    -10.54455031	      0.00000000	      0.00000000	     86.14730289	      0.11439034	     -0.95499566	    100.55921903	      1.75508947	      2.98372156	     -6.61267198	      0.00000000	      0.00000000	    -66.30968654	     -8.10609354	     -4.58396474	     89.42065502	    -18.33399531	     37.91578348	     32.33071061	     27.51737289	      0.00000000	      0.00000000	     89.71748901	      2.52743442	     26.95576589	     44.45186738	     23.45566024	      0.00000000	      0.00000000
      7.54000000	    -10.61995990	      6.60951953	      5.01248983	      0.16588001	      1.07001014	     -0.30809996	      0.00000000	      0.50000000	      0.00000000	      0.25000000	     44.96415635	    -13.81480539	      0.70457478	     56.83231669	      0.99191105	    -24.78267339	    -10.94740316	      0.00000000	      0.00000000	     84.96662906	     -0.09427831	     -0.84689718	     98.36233879	      1.71674667	      4.07352546	     -6.69066341	      0.00000000	      0.00000000	    -66.43516798	     -8.09195738	     -4.17787526	     89.41079168	    -18.52026781	     37.34757381	     33.04901538	     27.49581207	      0.00000000	      0.00000000	     89.71535927	      2.38677075	     26.95940934	     45.05445347	     23.47621522	      0.00000000	      0.00000000
      7.54500000	    -10.38380150	      6.43429312	      4.82855413	      0.16574329	      1.07054201	     -0.30813181	      0.00000000	      0.50000000	      0.00000000	      0.25000000	     45.57320602	    -13.49977945	      1.13947058	     59.18359363	      1.03294857	    -24.41045902	    -11.29586565	      0.00000000	      0.00000000	     83.41324975	     -0.24155999	     -1.01309842	     96.08762148	      1.67704537	      5.04872307	     -6.98259562	      0.00000000	      0.00000000	    -66.76401259	     -8.09875446	     -3.94666578	     89.41743653	    -18.63035883	     37.17670279	     33.25500652	     27.49408961	      0.00000000	      0.00000000	     89.71456815	      2.29652341	     26.93962373	     45.23638697	     23.48873847	      0.00000000	      0.00000000
